#!OML:ASF H:\Terrain\Patient Classification 1\Terrain2\Thursday\justin.ASF
:FULLY-SPECIFIED
:DEGREES
2475
root 7.14487 18.094 11.6328 61.9786 98.2187 -291.498
lowerback 5.84497 1.03091 5.57489
upperback 1.91003 1.90663 4.22556
thorax -1.27346 1.0108 1.10183
lowerneck -12.3721 -2.16916 -7.65048
upperneck 40.071 1.03998 0.627198
head 16.5334 0.0802894 2.04405
rclavicle -1.19473e-014 -4.01545e-014
rhumerus -31.3571 -13.5137 -76.9368
rradius 24.5773
rwrist -7.29291
rhand -21.6349 11.1734
rfingers 7.12502
rthumb 4.76132 -18.7531
lclavicle -1.19473e-014 -4.01545e-014
lhumerus -42.0683 12.7443 80.7554
lradius 25.467
lwrist -6.79908
lhand -13.1348 19.4469
lfingers 7.12502
lthumb 12.9632 49.0242
rfemur 4.75404 -4.22822 32.6034
rtibia 12.0649
rfoot -5.92094 -0.278656
rtoes 29.3331
lfemur -22.0661 9.843 0.63416
ltibia 106.985
lfoot 5.72579 -16.0799
ltoes 7.6493
2476
root 7.19677 18.1086 11.6403 63.5947 98.6992 -289.944
lowerback 6.06939 1.01652 6.27103
upperback 1.9245 1.95504 4.22859
thorax -1.35925 1.03652 0.71078
lowerneck -12.5506 -2.21746 -7.55744
upperneck 40.0258 0.89433 0.717086
head 16.5576 0.0388816 2.04114
rclavicle 3.60297e-016 -4.37326e-014
rhumerus -31.0145 -12.8298 -77.5579
rradius 25.5209
rwrist -8.37413
rhand -22.1061 11.0289
rfingers 7.12502
rthumb 4.30628 -18.9073
lclavicle 3.60297e-016 -4.37326e-014
lhumerus -41.8944 12.9558 80.5258
lradius 26.0912
lwrist -8.148
lhand -13.2067 18.8992
lfingers 7.12502
lthumb 12.8939 48.4808
rfemur 6.0518 -4.49746 33.297
rtibia 9.49023
rfoot -4.24838 -0.314225
rtoes 23.2388
lfemur -24.4336 10.5356 1.5352
ltibia 109.682
lfoot 3.31662 -16.2054
ltoes 6.96747
2477
root 7.25264 18.1219 11.6406 65.0305 99.271 -288.484
lowerback 6.32034 1.10105 7.258
upperback 1.98702 2.15591 4.17438
thorax -1.38861 1.14051 0.0902797
lowerneck -12.8092 -2.38067 -7.56615
upperneck 40.0323 0.519834 1.04565
head 16.6409 -0.0803937 2.12576
rclavicle 3.02525e-015 -1.90833e-014
rhumerus -30.7492 -12.6527 -77.9692
rradius 26.4426
rwrist -9.32471
rhand -22.2337 11.229
rfingers 7.12502
rthumb 4.18311 -18.7097
lclavicle 3.02525e-015 -1.90833e-014
lhumerus -41.5131 11.9425 80.8822
lradius 26.7745
lwrist -8.22519
lhand -13.6904 18.7502
lfingers 7.12502
lthumb 12.4276 48.3607
rfemur 7.25409 -4.82122 34.089
rtibia 7.15484
rfoot -2.89229 -0.186753
rtoes 13.1457
lfemur -26.7539 11.2673 2.4933
ltibia 112.295
lfoot 1.05752 -16.4544
ltoes 6.22857
2478
root 7.30211 18.1336 11.6423 66.5604 99.5491 -286.926
lowerback 6.68453 1.24018 7.78646
upperback 1.97446 2.42352 4.20512
thorax -1.57051 1.27083 -0.198792
lowerneck -12.7022 -2.49088 -7.77252
upperneck 39.8482 0.258498 1.34823
head 16.5287 -0.176968 2.24578
rclavicle 6.3462e-014 6.59965e-014
rhumerus -30.6922 -12.3323 -78.1378
rradius 27.4366
rwrist -9.88424
rhand -22.091 11.4003
rfingers 7.12502
rthumb 4.32093 -18.5356
lclavicle 6.3462e-014 6.59965e-014
lhumerus -41.371 11.1636 81.3531
lradius 27.4951
lwrist -8.1283
lhand -14.3667 18.7264
lfingers 7.12502
lthumb 11.7755 48.3754
rfemur 8.61795 -4.97686 34.4892
rtibia 4.51083
rfoot -1.58109 0.36068
rtoes 10.6435
lfemur -29.0697 12.335 3.22942
ltibia 114.801
lfoot -0.681909 -17.0811
ltoes 5.75809
2479
root 7.36199 18.1756 11.6495 67.5447 99.4802 -285.876
lowerback 7.02295 1.32159 7.66171
upperback 2.01771 2.56411 4.2795
thorax -1.71527 1.33917 -0.0736691
lowerneck -12.7178 -2.54148 -7.77719
upperneck 39.736 0.185475 1.29527
head 16.4778 -0.216949 2.20629
rclavicle -2.9445e-015 -1.98785e-014
rhumerus -30.5437 -11.5141 -78.3978
rradius 28.4949
rwrist -10.3949
rhand -21.9933 11.1089
rfingers 7.12502
rthumb 4.4152 -18.8251
lclavicle -2.9445e-015 -1.98785e-014
lhumerus -41.5359 10.8572 81.8934
lradius 28.6152
lwrist -7.76342
lhand -14.4563 18.9983
lfingers 7.12502
lthumb 11.6891 48.6522
rfemur 11.2333 -5.09931 34.6358
rtibia -2.38542e-015
rfoot 0.71742 0.593389
rtoes 9.57397
lfemur -31.0498 13.5514 3.54995
ltibia 116.881
lfoot -2.09447 -17.865
ltoes 6.01587
2480
root 7.41969 18.2038 11.6567 68.7282 99.4343 -284.647
lowerback 7.24999 1.44901 7.56904
upperback 2.10975 2.75252 4.36296
thorax -1.74436 1.43616 0.0431909
lowerneck -12.8559 -2.63548 -7.95446
upperneck 39.6912 0.0330076 1.44765
head 16.4997 -0.290109 2.27798
rclavicle 5.64362e-014 4.85035e-014
rhumerus -30.3704 -10.6421 -78.6102
rradius 29.5677
rwrist -11.2833
rhand -21.7346 10.6812
rfingers 7.12502
rthumb 4.665 -19.2475
lclavicle 5.64362e-014 4.85035e-014
lhumerus -41.4288 9.93639 82.7552
lradius 29.6408
lwrist -6.72479
lhand -14.3938 19.4441
lfingers 7.12502
lthumb 11.7494 49.0946
rfemur 11.6068 -5.15409 34.5529
rtibia -5.48646e-014
rfoot 0.795704 0.430113
rtoes 14.3706
lfemur -33.1315 14.7083 3.8856
ltibia 118.93
lfoot -3.28757 -18.4938
ltoes 7.31354
2481
root 7.47592 18.2332 11.6645 69.3354 99.0708 -284.092
lowerback 7.37755 1.68496 7.38838
upperback 2.18411 3.051 4.21335
thorax -1.72298 1.58422 -0.038941
lowerneck -12.8196 -2.77093 -8.45588
upperneck 39.4792 -0.278467 2.01061
head 16.4022 -0.418975 2.55593
rclavicle 9.52924e-015 4.96962e-014
rhumerus -30.3575 -10.079 -78.8591
rradius 30.8156
rwrist -12.4781
rhand -21.8564 10.7769
rfingers 7.12502
rthumb 4.54745 -19.1543
lclavicle 9.52924e-015 4.96962e-014
lhumerus -40.9825 9.12928 83.1771
lradius 30.2307
lwrist -6.32478
lhand -14.272 19.5647
lfingers 7.12502
lthumb 11.8668 49.2084
rfemur 11.91 -5.14743 33.9314
rtibia 6.36111e-015
rfoot 0.969185 0.340264
rtoes 23.2689
lfemur -35.3691 15.6801 3.60257
ltibia 120.891
lfoot -4.67534 -18.6267
ltoes 8.07457
2482
root 7.53195 18.2469 11.6649 70.2188 98.908 -283.259
lowerback 7.48696 1.84278 7.57487
upperback 2.26342 3.27108 4.02616
thorax -1.66737 1.69496 -0.354737
lowerneck -12.8121 -2.87221 -8.59295
upperneck 39.2512 -0.492785 2.17999
head 16.2962 -0.508021 2.60928
rclavicle 2.36802e-014 -5.96354e-015
rhumerus -30.2862 -9.43408 -79.3397
rradius 32.0605
rwrist -13.5763
rhand -22.4771 11.2391
rfingers 7.12502
rthumb 3.9481 -18.7041
lclavicle 2.36802e-014 -5.96354e-015
lhumerus -40.4443 8.49953 83.2359
lradius 30.7775
lwrist -6.16284
lhand -13.6613 19.6957
lfingers 7.12502
lthumb 12.4557 49.3045
rfemur 12.0311 -5.2153 33.7961
rtibia -4.77083e-015
rfoot 1.27381 0.508646
rtoes 22.3274
lfemur -37.6217 17.1585 3.61494
ltibia 122.891
lfoot -7.03126 -18.6291
ltoes 5.50495
2483
root 7.57646 18.2335 11.6521 72.4001 99.1999 -281.214
lowerback 7.5113 1.89942 8.24646
upperback 2.33227 3.39818 4.0028
thorax -1.5601 1.76529 -0.756079
lowerneck -12.9781 -2.90555 -8.42946
upperneck 39.1821 -0.519659 1.98744
head 16.3007 -0.526337 2.48731
rclavicle -3.64273e-014 -8.46823e-014
rhumerus -30.0526 -8.58022 -79.7948
rradius 33.1366
rwrist -14.453
rhand -22.715 11.451
rfingers 7.12502
rthumb 3.7183 -18.4963
lclavicle -3.64273e-014 -8.46823e-014
lhumerus -40.0795 7.8773 83.4723
lradius 31.6744
lwrist -5.20477
lhand -13.2124 20.5412
lfingers 7.12502
lthumb 12.8885 50.1232
rfemur 11.7597 -5.28822 34.5855
rtibia -3.65764e-014
rfoot 1.35131 1.15186
rtoes 5.5451
lfemur -40.1418 19.2158 4.28637
ltibia 125.031
lfoot -9.52118 -19.1722
ltoes 1.2441
2484
root 7.62634 18.2608 11.6462 73.5314 98.9404 -280.213
lowerback 7.58062 2.01279 8.24704
upperback 2.39968 3.54111 3.82174
thorax -1.50585 1.83752 -0.955515
lowerneck -13.1453 -2.95238 -8.33537
upperneck 39.1988 -0.61708 2.00311
head 16.3555 -0.555014 2.46121
rclavicle 1.93815e-015 -3.29983e-014
rhumerus -29.8845 -7.66352 -80.203
rradius 34.2865
rwrist -15.4588
rhand -22.5706 11.0685
rfingers 7.12502
rthumb 3.85779 -18.8764
lclavicle 1.93815e-015 -3.29983e-014
lhumerus -39.9552 7.10917 83.8275
lradius 32.8051
lwrist -3.71008
lhand -13.8103 21.3743
lfingers 7.12502
lthumb 12.312 50.9918
rfemur 11.7846 -5.28893 34.3641
rtibia 7.95139e-015
rfoot 1.59615 1.09531
rtoes 5.8813
lfemur -42.4906 20.6726 3.80817
ltibia 126.638
lfoot -11.3815 -19.549
ltoes -2.08763
2485
root 7.67934 18.2847 11.6446 75.0505 98.8868 -278.693
lowerback 7.78217 2.14572 8.45337
upperback 2.48066 3.74769 3.71838
thorax -1.49693 1.94277 -1.19823
lowerneck -13.196 -3.01692 -8.35045
upperneck 39.1281 -0.761958 2.11315
head 16.3405 -0.604423 2.48486
rclavicle 3.71852e-014 3.61788e-014
rhumerus -29.7294 -6.97727 -80.4882
rradius 35.2577
rwrist -16.1533
rhand -22.4507 10.8613
rfingers 7.12502
rthumb 3.97351 -19.0814
lclavicle 3.71852e-014 3.61788e-014
lhumerus -39.6453 6.00931 84.2305
lradius 33.6147
lwrist -2.24225
lhand -14.7382 21.3565
lfingers 7.12502
lthumb 11.4173 51.0257
rfemur 12.0366 -5.30629 34.3357
rtibia -1.66979e-014
rfoot 2.11762 0.666371
rtoes 8.83241
lfemur -44.7798 22.02 3.52667
ltibia 128.073
lfoot -13.0058 -19.8067
ltoes -3.90669
2486
root 7.72877 18.3039 11.6428 77.8044 99.1732 -275.871
lowerback 8.07975 2.26291 8.94498
upperback 2.58512 3.98016 3.78476
thorax -1.50486 2.06504 -1.42808
lowerneck -13.1348 -3.02634 -8.40012
upperneck 38.8187 -0.823469 2.15108
head 16.1671 -0.634705 2.48759
rclavicle -1.5617e-014 3.37934e-014
rhumerus -29.4483 -6.48331 -80.6541
rradius 36.0274
rwrist -16.4594
rhand -22.3505 11.1227
rfingers 7.12502
rthumb 4.07026 -18.8181
lclavicle -1.5617e-014 3.37934e-014
lhumerus -39.1922 5.09874 84.5958
lradius 34.2583
lwrist -0.954228
lhand -15.0954 21.1309
lfingers 7.12502
lthumb 11.0727 50.8188
rfemur 12.3413 -5.23032 34.7524
rtibia 1.90833e-014
rfoot 2.19454 1.0511
rtoes 6.05723
lfemur -47.0241 23.9985 3.88299
ltibia 129.388
lfoot -14.378 -20.6413
ltoes -3.76104
2487
root 7.77546 18.3218 11.6453 79.7388 98.9074 -273.761
lowerback 8.56877 2.39625 8.68691
upperback 2.68306 4.18702 3.73366
thorax -1.67069 2.16404 -1.38069
lowerneck -13.013 -3.0213 -8.43463
upperneck 38.473 -0.86441 2.15938
head 15.9605 -0.657677 2.47691
rclavicle -9.3553e-015 2.38542e-014
rhumerus -29.2885 -5.74934 -80.881
rradius 37.0027
rwrist -16.8006
rhand -22.3628 11.1289
rfingers 7.12502
rthumb 4.05846 -18.8122
lclavicle -9.3553e-015 2.38542e-014
lhumerus -38.955 4.55891 84.7719
lradius 34.9993
lwrist 0.103485
lhand -15.4483 20.859
lfingers 7.12502
lthumb 10.7323 50.5649
rfemur 12.7417 -5.15231 34.4588
rtibia 2.38542e-014
rfoot 2.27002 1.22764
rtoes 7.1504
lfemur -49.195 25.6719 3.34199
ltibia 130.51
lfoot -15.2668 -21.5016
ltoes -2.60926
2488
root 7.82484 18.3438 11.6432 81.1835 98.713 -272.16
lowerback 8.98571 2.45282 8.58019
upperback 2.77338 4.29382 3.65337
thorax -1.79981 2.21475 -1.43557
lowerneck -13.0095 -2.97622 -8.46315
upperneck 38.3193 -0.827359 2.20602
head 15.8774 -0.64214 2.50256
rclavicle -2.54444e-014 -1.90833e-014
rhumerus -29.1616 -4.84032 -81.159
rradius 37.9147
rwrist -16.9346
rhand -22.4979 11.1004
rfingers 7.12502
rthumb 3.92793 -18.8431
lclavicle -2.54444e-014 -1.90833e-014
lhumerus -38.7929 4.31157 84.7547
lradius 35.7345
lwrist 1.02663
lhand -15.9838 20.2982
lfingers 7.12502
lthumb 10.2158 50.0302
rfemur 13.0091 -5.18927 34.3396
rtibia 1.19271e-014
rfoot 2.81845 0.628778
rtoes 7.55948
lfemur -51.5213 26.5591 2.42072
ltibia 131.418
lfoot -15.7934 -21.9955
ltoes -2.97801
2489
root 7.87373 18.3603 11.6356 83.1504 98.9351 -270.161
lowerback 9.22604 2.49872 9.02677
upperback 2.87194 4.41992 3.61292
thorax -1.78064 2.28327 -1.74255
lowerneck -13.0917 -2.95625 -8.35154
upperneck 38.2422 -0.833756 2.19357
head 15.8549 -0.633537 2.47305
rclavicle 3.37934e-014 2.06736e-014
rhumerus -28.8037 -4.42468 -81.3527
rradius 38.3755
rwrist -16.8218
rhand -22.3141 11.3951
rfingers 7.12502
rthumb 4.10551 -18.5451
lclavicle 3.37934e-014 2.06736e-014
lhumerus -38.6708 4.04485 84.722
lradius 36.602
lwrist 2.0523
lhand -16.328 19.6873
lfingers 7.12502
lthumb 9.88375 49.4353
rfemur 13.2114 -5.19134 34.6186
rtibia -3.89618e-014
rfoot 3.1047 0.453465
rtoes 7.65974
lfemur -54.0517 27.4208 1.72523
ltibia 132.133
lfoot -16.6574 -22.1576
ltoes -5.85726
